<svg version="1.1" viewBox="0.0 0.0 319.12073490813646 340.06299212598424" fill="none" stroke="none" stroke-linecap="square" stroke-miterlimit="10" xmlns:xlink="http://www.w3.org/1999/xlink" xmlns="http://www.w3.org/2000/svg"><clipPath id="p.0"><path d="m0 0l319.12073 0l0 340.063l-319.12073 0l0 -340.063z" clip-rule="nonzero"/></clipPath><g clip-path="url(#p.0)"><path fill="#000000" fill-opacity="0.0" d="m0 0l319.12073 0l0 340.063l-319.12073 0z" fill-rule="evenodd"/><path fill="#000000" fill-opacity="0.0" d="m-25.254593 -183.30971l352.7874 0l0 379.02362l-352.7874 0z" fill-rule="evenodd"/><path fill="#ffffff" d="m274.40164 0.096538715q10.671875 0 16.265625 6.671875q5.609375 6.65625 5.609375 17.859375q0 12.265625 -6.40625 27.734375q-18.65625 17.062504 -42.124985 45.32813q-23.46875 28.265625 -55.46875 70.40625q29.328125 48.0 47.453125 72.265625q18.14061 24.26561 34.67186 33.32811q6.9375 3.734375 16.546875 6.40625q12.265625 3.734375 18.125 7.46875q5.875 3.71875 5.875 11.1875q0 14.9375 -13.875 22.140625q-13.859375 7.203125 -33.59375 7.203125q-25.60936 0 -50.406235 -28.265625q-24.796875 -28.265625 -59.46875 -84.26561q-33.59375 44.26561 -56.0 71.73436q-22.390625 27.453125 -40.53125 44.53125q-3.734375 3.1875 -10.671875 5.0625q-6.921875 1.859375 -11.71875 1.859375q-11.734375 0 -20.0 -9.59375q-8.265625 -9.609375 -8.796875 -19.734375q0 -1.59375 5.859375 -10.65625q5.859375 -9.078125 18.140625 -20.8125q13.328125 -10.125 34.921875 -36.249985q21.609375 -26.140625 58.40625 -74.140625l-15.46875 -24.546875q-20.265625 -32.0 -29.875 -45.859375q-9.59375 -13.859375 -18.125 -21.0625q-8.53125 -7.203125 -18.140625 -7.203125q-3.1875 0 -9.859375 1.875q-6.671875 1.859375 -10.9375 1.859375q-5.859375 0 -10.65625 -2.140625q-13.34375 -5.859375 -13.34375 -17.593754q0 -5.328125 2.140625 -9.0625q4.265625 -9.609375 17.859375 -17.875q13.609375 -8.265625 37.0625 -8.265625q21.875 0 37.875 11.203125q16.0 11.203125 29.59375 30.40625q13.609375 19.187504 37.609375 60.26563q52.796875 -71.46875 74.65625 -96.0q12.796875 -14.9375 20.26561 -19.203125q7.46875 -4.265625 16.53125 -4.265625z" fill-rule="nonzero"/></g></svg>